<svg aria-hidden="true" style="position:absolute;width:0;height:0" xmlns="http://www.w3.org/2000/svg" overflow="hidden"><defs><symbol id="icon-chevron-right" viewBox="0 0 32 32"><path d="M11.583 2.75L8.469 5.864 18.583 16 8.469 26.136l3.114 3.114L24.833 16z"/></symbol><symbol id="icon-telegram" viewBox="0 0 32 32"><path d="M7.695 18.235l3.982 9.954 5.184-5.184 8.888 7.065 6.258-28.14L-.01 15.266zm15.165-8.231l-9.8 8.938-1.221 4.6-2.255-5.638z"/></symbol><symbol id="icon-home" viewBox="0 0 32 32"><path d="M12.798 28.807v-9.605h6.403v9.605h8.004V16h4.802L15.999 1.593-.009 16h4.802v12.807z"/></symbol><symbol id="icon-github" viewBox="0 0 32 32"><path d="M16 0C7.212 0 0 7.212 0 16c0 7.499 5.262 14.312 12.25 16v-5.293c-.692.152-1.33.156-2.034-.052-.946-.279-1.714-.909-2.284-1.869-.364-.613-1.008-1.278-1.68-1.23l-.165-1.868c1.453-.125 2.711.886 3.457 2.139.332.558.713.885 1.203 1.029.473.139.982.073 1.574-.137.149-1.186.692-1.63 1.102-2.255v-.001c-4.167-.622-5.828-2.833-6.488-4.578-.874-2.317-.405-5.212 1.14-7.041.03-.036.084-.129.063-.194-.708-2.139.155-3.909.187-4.097.817.242.95-.243 3.551 1.337l.449.27c.188.112.129.048.317.034A13.544 13.544 0 0116 7.722c1.136.015 2.273.178 3.404.484l.145.015c-.013-.002.04-.009.127-.062 3.248-1.968 3.132-1.324 4.003-1.608.032.188.883 1.987.182 4.099-.094.291 2.816 2.956 1.203 7.235-.659 1.746-2.32 3.957-6.487 4.578v.001c.534.814 1.176 1.247 1.173 2.927v6.608c6.988-1.688 12.25-8.501 12.25-16 0-8.788-7.212-16-16-16z"/></symbol><symbol id="icon-facebook" viewBox="0 0 32 32"><path d="M18 11V7a2 2 0 012-2h2V0h-4a6 6 0 00-6 6v5H8v5h4v16h6V16h4l2-5h-6z"/></symbol></defs></svg>